<svg width="325pt" height="176" viewBox="0 0 324.52 131.91" xmlns="http://www.w3.org/2000/svg"><g class="graph" transform="translate(4 127.91)"><path fill="#fff" stroke="transparent" d="M-4 4v-131.91h324.52V4H-4z"/><g class="node"><circle stroke="#000" cx="141.65" cy="-60.06" r="1.8"/></g><g class="node"><circle stroke="#000" cx="84.12" cy="-118.33" r="1.8"/></g><g class="edge"><path fill="none" stroke="#000" d="M140.23-61.5c-6.48-6.56-33.44-33.87-47.5-48.1"/><path stroke="#000" d="M90.24-107.15l-4.53-9.57 9.51 4.65-4.98 4.92z"/><text text-anchor="middle" x="112.98" y="-88.35" font-family="Times,serif" font-size="14">0</text></g><g class="node"><circle stroke="#000" cx="180.07" cy="-60.06" r="1.8"/></g><g class="node"><circle stroke="#000" cx="7" cy="-99.09" r="1.8"/></g><g class="edge"><path fill="none" stroke="#000" d="M82.22-117.85c-8.67 2.16-44.77 11.17-63.63 15.87"/><path stroke="#000" d="M19.39-98.57l-10.55-.98 8.86-5.81 1.69 6.79z"/><text text-anchor="middle" x="46.9" y="-112.71" font-family="Times,serif" font-size="14">1</text></g><g class="node"><circle stroke="#000" cx="7" cy="-21.04" r="1.8"/></g><g class="edge"><path fill="none" stroke="#000" d="M7-97.16v64.11"/><path stroke="#000" d="M10.5-32.9L7-22.9l-3.5-10h7z"/><text text-anchor="middle" x="3.5" y="-67.9" font-family="Times,serif" font-size="14">2</text></g><g class="node"><circle stroke="#000" cx="84.12" cy="-1.8" r="1.8"/></g><g class="edge"><path fill="none" stroke="#000" d="M8.91-20.56C17.58-18.4 53.67-9.4 72.53-4.69"/><path stroke="#000" d="M73.43-8.08l8.85 5.82-10.55.98 1.7-6.8z"/><text text-anchor="middle" x="37.22" y="-15.43" font-family="Times,serif" font-size="14">3</text></g><g class="edge"><path fill="none" stroke="#000" d="M85.54-3.24c6.48-6.56 33.44-33.86 47.49-48.1"/><path stroke="#000" d="M130.55-53.8l9.51-4.66-4.53 9.58-4.98-4.92z"/><text text-anchor="middle" x="105.79" y="-30.09" font-family="Times,serif" font-size="14">4</text></g><g class="node"><circle stroke="#000" cx="237.6" cy="-118.33" r="1.8"/></g><g class="edge"><path fill="none" stroke="#000" d="M181.5-61.5c6.47-6.56 33.43-33.87 47.49-48.1"/><path stroke="#000" d="M226.5-112.07l9.52-4.65-4.54 9.57-4.98-4.92z"/><text text-anchor="middle" x="201.74" y="-88.35" font-family="Times,serif" font-size="14">5</text></g><g class="node"><circle stroke="#000" cx="314.72" cy="-99.09" r="1.8"/></g><g class="edge"><path fill="none" stroke="#000" d="M239.51-117.85c8.67 2.16 44.76 11.17 63.62 15.87"/><path stroke="#000" d="M304.03-105.36l8.85 5.81-10.55.98 1.7-6.79z"/><text text-anchor="middle" x="267.82" y="-112.71" font-family="Times,serif" font-size="14">6</text></g><g class="node"><circle stroke="#000" cx="314.72" cy="-21.04" r="1.8"/></g><g class="edge"><path fill="none" stroke="#000" d="M314.72-97.16v64.11"/><path stroke="#000" d="M318.22-32.9l-3.5 10-3.5-10h7z"/><text text-anchor="middle" x="311.22" y="-67.9" font-family="Times,serif" font-size="14">7</text></g><g class="node"><circle stroke="#000" cx="237.6" cy="-1.8" r="1.8"/></g><g class="edge"><path fill="none" stroke="#000" d="M312.82-20.56c-8.67 2.16-44.77 11.16-63.63 15.87"/><path stroke="#000" d="M249.99-1.28l-10.55-.98 8.85-5.82 1.7 6.8z"/><text text-anchor="middle" x="277.5" y="-15.43" font-family="Times,serif" font-size="14">8</text></g><g class="edge"><path fill="none" stroke="#000" d="M236.18-3.24c-6.47-6.56-33.44-33.86-47.49-48.1"/><path stroke="#000" d="M186.19-48.88l-4.53-9.58 9.51 4.66-4.98 4.92z"/><text text-anchor="middle" x="208.93" y="-30.09" font-family="Times,serif" font-size="14">9</text></g></g></svg>