<svg width="350pt" height="175pt" viewBox="0 0 350 174.96" xmlns="http://www.w3.org/2000/svg"><g class="graph" transform="translate(4 170.96)"><path fill="#fff" stroke="transparent" d="M-4 4v-174.96h350V4H-4z"/><g class="node"><ellipse fill="none" stroke="#000" cx="27" cy="-120.04" rx="27" ry="18"/><text text-anchor="middle" x="27" y="-115.84" font-family="Times,serif" font-size="14">0</text></g><g class="node"><ellipse fill="none" stroke="#000" cx="99" cy="-120.04" rx="27" ry="18"/><text text-anchor="middle" x="99" y="-115.84" font-family="Times,serif" font-size="14">1</text></g><g class="edge"><path fill="none" stroke="#000" d="M54-120.04h7.84"/><path stroke="#000" d="M61.93-123.54l10 3.5-10 3.5v-7z"/></g><g class="node"><ellipse fill="none" stroke="#000" cx="27" cy="-48.04" rx="27" ry="18"/><text text-anchor="middle" x="27" y="-43.84" font-family="Times,serif" font-size="14">9</text></g><g class="edge"><path fill="none" stroke="#000" d="M27-91.7v15.16"/><path stroke="#000" d="M23.5-91.73l3.5-10 3.5 10h-7zM30.5-76.14l-3.5 10-3.5-10h7z"/></g><g class="node"><ellipse fill="none" stroke="#000" cx="171" cy="-120.04" rx="27" ry="18"/><text text-anchor="middle" x="171" y="-115.84" font-family="Times,serif" font-size="14">2</text></g><g class="edge"><path fill="none" stroke="#000" d="M126-120.04h7.84"/><path stroke="#000" d="M133.93-123.54l10 3.5-10 3.5v-7z"/></g><g class="node"><ellipse fill="none" stroke="#000" cx="99" cy="-48.04" rx="27" ry="18"/><text text-anchor="middle" x="99" y="-43.84" font-family="Times,serif" font-size="14">8</text></g><g class="edge"><path fill="none" stroke="#000" d="M99-91.7v15.16"/><path stroke="#000" d="M95.5-91.73l3.5-10 3.5 10h-7zM102.5-76.14l-3.5 10-3.5-10h7z"/></g><g class="node"><ellipse fill="none" stroke="#000" cx="243" cy="-120.04" rx="27" ry="18"/><text text-anchor="middle" x="243" y="-115.84" font-family="Times,serif" font-size="14">3</text></g><g class="edge"><path fill="none" stroke="#000" d="M198-120.04h7.84"/><path stroke="#000" d="M205.93-123.54l10 3.5-10 3.5v-7z"/></g><g class="node"><ellipse fill="none" stroke="#000" cx="171" cy="-48.04" rx="27" ry="18"/><text text-anchor="middle" x="171" y="-43.84" font-family="Times,serif" font-size="14">7</text></g><g class="edge"><path fill="none" stroke="#000" d="M171-91.7v15.16"/><path stroke="#000" d="M167.5-91.73l3.5-10 3.5 10h-7zM174.5-76.14l-3.5 10-3.5-10h7z"/></g><g class="node"><ellipse fill="none" stroke="#000" cx="315" cy="-120.04" rx="27" ry="18"/><text text-anchor="middle" x="315" y="-115.84" font-family="Times,serif" font-size="14">4</text></g><g class="edge"><path fill="none" stroke="#000" d="M270-120.04h7.84"/><path stroke="#000" d="M277.93-123.54l10 3.5-10 3.5v-7z"/></g><g class="node"><ellipse fill="none" stroke="#000" cx="243" cy="-48.04" rx="27" ry="18"/><text text-anchor="middle" x="243" y="-43.84" font-family="Times,serif" font-size="14">6</text></g><g class="edge"><path fill="none" stroke="#000" d="M243-91.7v15.16"/><path stroke="#000" d="M239.5-91.73l3.5-10 3.5 10h-7zM246.5-76.14l-3.5 10-3.5-10h7z"/></g><g class="edge"><path fill="none" stroke="#000" d="M300.78-135.61c-8.15-7.75-19.07-16.32-30.78-20.43-41.52-14.56-156.48-14.56-198 0-8.23 2.89-16.08 7.99-22.84 13.45"/><path stroke="#000" d="M51.04-139.58l-9.82 3.97 5.2-9.23 4.62 5.26z"/></g><g class="node"><ellipse fill="none" stroke="#000" cx="315" cy="-48.04" rx="27" ry="18"/><text text-anchor="middle" x="315" y="-43.84" font-family="Times,serif" font-size="14">5</text></g><g class="edge"><path fill="none" stroke="#000" d="M315-91.7v15.16"/><path stroke="#000" d="M311.5-91.73l3.5-10 3.5 10h-7zM318.5-76.14l-3.5 10-3.5-10h7z"/></g><g class="edge"><path fill="none" stroke="#000" d="M64.09-48.04h7.84"/><path stroke="#000" d="M64-44.54l-10-3.5 10-3.5v7z"/></g><g class="edge"><path fill="none" stroke="#000" d="M136.09-48.04h7.84"/><path stroke="#000" d="M136-44.54l-10-3.5 10-3.5v7z"/></g><g class="edge"><path fill="none" stroke="#000" d="M208.09-48.04h7.84"/><path stroke="#000" d="M208-44.54l-10-3.5 10-3.5v7z"/></g><g class="edge"><path fill="none" stroke="#000" d="M280.09-48.04h7.84"/><path stroke="#000" d="M280-44.54l-10-3.5 10-3.5v7z"/></g><g class="edge"><path fill="none" stroke="#000" d="M292.84-25.49c-6.76 5.47-14.61 10.57-22.84 13.45-73.34 25.73-243 2.47-243-18"/><path stroke="#000" d="M290.96-28.49l9.82-3.98-5.2 9.23-4.62-5.25z"/></g></g></svg>